<svg role="img" viewBox="0 0 24 24" xmlns="http://www.w3.org/2000/svg" fill="#0A66C2">
  <title>LinkedIn</title>
  <path d="M20.452 20.452H17.2v-5.569c0-1.328-.027-3.037-1.852-3.037-1.854 0-2.138 1.447-2.138 2.942v5.664H9.06V9h3.123v1.561h.045c.435-.825 1.5-1.693 3.09-1.693 3.305 0 3.914 2.175 3.914 5.004v6.58zM5.337 7.433a1.812 1.812 0 1 1 0-3.624 1.812 1.812 0 0 1 0 3.624zM6.748 20.452H3.927V9h2.821v11.452zM22.225 0H1.771C.792 0 0 .774 0 1.729v20.542C0 23.226.792 24 1.771 24h20.451C23.205 24 24 23.226 24 22.271V1.729C24 .774 23.205 0 22.225 0z"/>
</svg>
