<svg role="img" viewBox="0 0 24 24" xmlns="http://www.w3.org/2000/svg" fill="#181717">
  <title>GitHub</title>
  <path d="M12 0a12 12 0 0 0-3.792 23.4c.6.112.792-.263.792-.584v-2.24c-3.24.712-3.92-1.552-3.92-1.552a3.1 3.1 0 0 0-1.344-1.768c-1.096-.752.088-.736.088-.736a2.46 2.46 0 0 1 1.8 1.2 2.5 2.5 0 0 0 3.4.976c.048-.584.28-1.008.52-1.24-2.584-.296-5.296-1.288-5.296-5.728a4.48 4.48 0 0 1 1.2-3.112 4.16 4.16 0 0 1 .112-3.064s.976-.312 3.2 1.2a11.12 11.12 0 0 1 5.84 0c2.224-1.512 3.2-1.2 3.2-1.2.64 1.784.24 3.104.12 3.064a4.48 4.48 0 0 1 1.2 3.112c0 4.456-2.72 5.432-5.312 5.72.312.28.6.824.6 1.664v2.456c0 .312.192.704.8.584A12 12 0 0 0 12 0z"/>
</svg>
